<?xml version="1.0" standalone="no"?>
<!DOCTYPE svg PUBLIC "-//W3C//DTD SVG 20010904//EN"
 "http://www.w3.org/TR/2001/REC-SVG-20010904/DTD/svg10.dtd">
<svg version="1.0" xmlns="http://www.w3.org/2000/svg"
 width="2001.000000pt" height="2066.000000pt" viewBox="0 0 2001.000000 2066.000000"
 preserveAspectRatio="xMidYMid meet">

<g transform="translate(0.000000,2066.000000) scale(0.100000,-0.100000)"
fill="#000000" stroke="none">
<path d="M9640 18910 c-1711 -79 -3298 -592 -4715 -1525 -330 -217 -637 -452
-1033 -789 l-33 -29 -31 29 c-118 111 -358 470 -479 717 -18 37 -37 67 -41 67
-5 0 -13 -11 -18 -25 -5 -14 -13 -25 -18 -25 -13 0 -78 199 -111 340 -53 227
-81 447 -81 635 0 63 -3 115 -6 115 -16 0 -107 -73 -167 -134 -97 -100 -195
-251 -297 -462 -49 -101 -91 -184 -93 -184 -2 0 0 23 5 51 5 28 8 55 6 61 -2
6 -34 -28 -70 -77 -62 -81 -122 -201 -178 -350 l-19 -50 -1 50 -2 50 -45 -95
c-159 -334 -288 -735 -373 -1160 -62 -313 -91 -543 -110 -894 l-11 -199 -73
-86 c-187 -222 -315 -396 -434 -589 -379 -620 -636 -1196 -920 -2062 -61 -185
-202 -652 -202 -667 0 -3 44 82 98 189 54 106 138 261 187 343 102 175 276
448 281 442 2 -2 -19 -58 -46 -126 -330 -812 -535 -1893 -600 -3165 -10 -197
-9 -243 4 -169 25 136 157 624 233 856 l38 119 1 -434 c0 -450 12 -672 54
-1033 108 -918 364 -1830 762 -2707 749 -1653 1848 -2976 3343 -4024 157 -110
393 -266 715 -472 415 -265 1011 -559 1555 -766 236 -89 724 -257 760 -261 17
-2 113 -26 215 -54 612 -168 1283 -279 2015 -333 260 -19 1119 -16 1425 6
1010 70 1823 239 2545 528 209 83 583 270 751 376 277 173 442 310 678 558
164 173 247 276 317 395 26 44 58 81 88 103 25 18 168 94 316 169 274 139 539
286 742 412 61 38 111 70 110 71 -1 1 -74 -9 -162 -22 -385 -55 -945 -113
-1330 -135 l-210 -13 -42 -34 c-29 -23 -50 -33 -63 -29 -14 4 -34 -8 -67 -37
-27 -24 -96 -83 -155 -132 l-108 -90 -102 8 c-754 54 -1589 216 -2338 453
-2250 711 -4202 2183 -5505 4150 -73 110 -138 210 -144 222 -10 20 1 17 96
-26 60 -26 142 -60 183 -75 l75 -28 55 -90 c314 -514 903 -999 1550 -1276 399
-171 928 -306 1440 -368 191 -23 717 -28 910 -9 800 80 1479 316 2125 739 967
634 1669 1624 1944 2743 86 349 121 629 128 1015 9 479 -32 867 -138 1293
-128 517 -345 1015 -619 1426 -48 72 -82 110 -144 159 -235 189 -612 539 -839
780 -267 283 -541 647 -715 951 -170 298 -381 776 -475 1078 -24 75 -56 160
-72 189 -28 51 -30 53 -62 47 -31 -6 -33 -4 -64 57 -17 35 -32 64 -34 66 -1 1
-14 -2 -29 -8 -26 -10 -28 -8 -50 43 -13 28 -36 92 -52 140 -27 84 -30 88 -54
82 -14 -4 -26 -8 -28 -10 -9 -9 21 -348 42 -485 59 -372 158 -687 325 -1032
64 -131 179 -341 226 -412 l19 -29 -24 13 c-14 7 -63 40 -110 73 -756 538
-1223 1362 -1299 2290 -34 404 16 807 149 1207 146 441 383 838 689 1155 74
77 79 85 59 90 -99 23 -493 76 -738 100 -389 37 -923 51 -1280 35z m-1445
-1740 c-4 -6 -50 -33 -103 -61 -53 -27 -90 -48 -82 -45 8 3 56 18 105 34 174
58 419 84 578 63 157 -21 317 -77 307 -106 -2 -6 -67 -35 -144 -66 -168 -66
-196 -80 -196 -90 0 -5 20 -6 44 -3 24 4 46 2 49 -3 3 -5 -49 -48 -116 -96
-439 -311 -791 -726 -1035 -1217 -54 -107 -106 -222 -116 -255 -11 -33 -39
-116 -62 -185 -116 -337 -184 -671 -215 -1054 -16 -199 -7 -717 15 -841 40
-233 160 -549 317 -841 l44 -81 2 316 c2 270 0 334 -17 442 -17 115 -18 138
-6 245 11 103 11 133 -3 227 -15 97 -15 120 -2 212 15 100 14 110 -10 272 -19
125 -23 177 -16 202 6 23 5 66 -3 128 -7 52 -10 96 -7 99 3 3 9 -16 13 -43 11
-77 25 -96 17 -23 -8 64 -9 125 -4 185 2 17 0 68 -3 114 -3 46 -8 121 -10 165
l-5 81 12 -70 c16 -85 27 -67 14 22 -5 34 -6 80 -2 100 l7 36 40 -74 c101
-187 278 -368 441 -450 147 -75 210 -89 562 -124 943 -94 1327 -183 1401 -327
32 -62 11 -278 -42 -437 -51 -152 -148 -297 -304 -451 -155 -153 -222 -195
-520 -325 -804 -352 -1257 -590 -1390 -729 l-35 -37 22 -62 c12 -34 25 -73 28
-86 7 -23 7 -23 -16 -7 -29 20 -58 21 -65 1 -4 -9 3 -38 15 -65 17 -39 23 -84
32 -226 11 -193 4 -293 -31 -426 -18 -69 -68 -218 -76 -227 -1 -1 -40 22 -86
52 -46 30 -105 67 -133 83 l-50 28 81 -85 c91 -96 134 -173 134 -242 0 -24 -3
-46 -6 -49 -3 -3 -38 26 -77 66 -40 40 -110 95 -157 124 -129 80 -465 246
-483 239 -13 -5 -9 -18 24 -78 21 -40 38 -73 37 -74 -2 -1 -50 23 -107 53 -81
43 -100 57 -85 62 15 5 11 8 -16 13 -212 38 -591 44 -794 13 -320 -49 -632
-167 -837 -316 l-66 -48 -22 147 c-85 584 -117 1083 -108 1671 6 365 13 509
42 820 89 952 311 1887 665 2800 29 74 56 138 59 143 10 10 324 -70 499 -128
l142 -46 88 89 c96 97 189 179 212 184 10 2 13 -8 12 -42 l-2 -45 17 25 c86
123 311 300 515 405 72 38 89 43 84 28 -24 -81 -35 -82 160 16 272 135 478
213 709 266 116 27 128 29 120 15z m-1714 -7557 c75 -97 243 -259 388 -375
120 -96 126 -107 42 -76 -13 5 -26 7 -28 4 -11 -11 332 -222 505 -311 51 -26
91 -49 89 -51 -2 -2 -30 3 -63 11 -105 27 -102 26 -74 5 96 -74 362 -197 531
-245 183 -53 313 -68 519 -62 257 8 410 39 860 177 434 133 588 165 850 176
548 24 1073 -176 1443 -549 98 -99 183 -213 222 -297 26 -57 29 -76 30 -160 0
-110 -17 -159 -81 -230 -95 -105 -222 -127 -424 -74 -49 12 -91 15 -175 12
-95 -5 -127 -11 -233 -46 -164 -55 -367 -155 -722 -354 -378 -212 -469 -261
-555 -295 -68 -28 -72 -28 -145 -17 -41 7 -167 26 -279 43 -113 17 -212 33
-222 36 -9 3 -64 12 -121 21 -56 8 -141 21 -188 30 -218 38 -327 56 -355 58
-16 1 -36 5 -43 9 -7 5 -22 5 -33 2 -15 -5 -19 -4 -15 4 5 7 -3 11 -21 12 -55
1 -340 65 -568 129 -123 34 -147 39 -185 40 -26 0 -31 3 -20 10 12 8 8 10 -15
12 -16 1 -39 2 -50 3 -25 1 -104 24 -127 36 -10 5 -27 9 -37 9 -11 0 -22 4
-25 9 -3 4 -23 11 -44 15 -22 3 -52 13 -68 21 -16 8 -45 18 -64 21 -19 4 -37
10 -40 13 -7 9 -74 31 -93 31 -9 0 -17 5 -17 10 0 6 -6 10 -12 10 -7 0 -26 7
-41 15 -15 8 -56 19 -90 26 -34 6 -69 18 -78 25 -8 8 -23 14 -32 14 -9 0 -19
5 -22 10 -3 6 -14 10 -24 10 -10 0 -24 7 -31 15 -7 8 -23 15 -35 15 -13 0 -25
7 -29 15 -3 8 -14 15 -25 15 -11 0 -25 9 -31 20 -6 11 -21 20 -34 20 -13 0
-26 7 -30 15 -3 8 -15 15 -26 15 -11 0 -23 7 -26 15 -3 8 -27 24 -52 35 -26
12 -55 26 -64 31 -10 5 -26 9 -37 9 -10 0 -21 6 -24 13 -4 10 2 13 20 9 18 -3
24 -1 19 7 -4 6 -18 11 -32 11 -13 0 -24 5 -24 10 0 6 -11 10 -23 10 -18 0
-28 10 -42 39 -12 28 -25 40 -44 44 -22 5 -34 19 -60 77 -26 57 -30 74 -21 85
7 8 9 26 6 39 -3 14 -1 28 4 31 6 4 10 15 8 24 -2 10 3 25 10 34 10 12 11 21
3 36 -9 16 -8 22 5 29 14 8 14 13 4 32 -10 19 -10 24 4 32 11 6 15 16 11 28
-3 10 -1 21 5 25 6 4 9 19 5 34 -4 19 -1 32 9 40 8 7 12 19 9 27 -3 8 0 20 6
28 6 7 9 20 6 28 -3 8 1 20 9 27 11 9 13 19 6 37 -8 19 -6 26 5 30 10 4 13 14
9 29 -3 14 0 24 9 28 10 3 13 14 10 31 -4 17 -1 26 7 26 8 0 10 9 6 25 -5 18
-2 27 9 32 9 3 14 11 11 19 -3 7 2 18 10 25 8 6 12 20 9 29 -3 9 1 22 9 29 8
6 12 21 9 31 -3 12 1 22 10 26 8 3 13 13 10 23 -3 10 2 21 10 24 10 4 13 13
10 25 -2 11 0 23 6 26 6 4 11 15 11 26 0 10 7 20 15 24 11 4 14 13 9 31 -4 15
-2 25 5 25 6 0 11 9 11 20 0 11 7 23 15 26 10 4 13 14 9 30 -4 17 -1 26 10 30
9 3 13 10 10 16 -3 5 2 18 11 28 9 10 14 23 11 28 -3 6 1 12 9 16 8 3 15 15
15 26 0 11 6 23 14 26 8 3 13 11 10 18 -3 7 2 18 10 25 8 7 13 18 10 25 -3 8
2 16 10 19 9 4 16 13 16 20 0 17 28 75 40 82 5 3 7 12 4 19 -3 7 2 16 11 20
10 3 15 12 12 20 -5 12 0 26 9 26 1 0 26 -30 55 -67z"/>
<path d="M19546 9448 c-2 -13 -18 -124 -36 -248 -17 -124 -50 -322 -74 -440
-24 -118 -42 -216 -41 -218 6 -7 122 289 174 443 75 218 134 422 128 438 -4
10 -116 47 -141 47 -3 0 -8 -10 -10 -22z"/>
<path d="M18665 5768 c-381 -589 -881 -1209 -1384 -1720 -96 -98 -171 -178
-167 -178 14 0 231 109 351 176 554 309 972 700 1168 1089 90 181 127 324 127
495 0 85 -18 230 -29 230 -4 0 -33 -42 -66 -92z"/>
</g>
</svg>
